<svg width="28" height="28" viewBox="0 0 28 28" fill="none" xmlns="http://www.w3.org/2000/svg">
<circle cx="14" cy="14" r="14" fill="#333333"/>
<path d="M6.88333 11.7833C6.88333 7.8549 10.0716 4.66663 14 4.66663C17.9284 4.66663 21.1167 7.8549 21.1167 11.7833C21.1167 15.4081 18.5926 17.3438 17.5394 17.9511H10.4606C9.40738 17.3438 6.88333 15.4081 6.88333 11.7833Z" fill="white"/>
<path d="M11.1532 20.7978H16.8465C17.3684 20.7978 17.7954 20.3708 17.7954 19.8489C17.7954 19.327 17.3684 18.9 16.8465 18.9H11.1532C10.6313 18.9 10.2043 19.327 10.2043 19.8489C10.2043 20.3708 10.6313 20.7978 11.1532 20.7978Z" fill="white"/>
<path d="M14.0002 23.645C15.044 23.645 15.898 22.791 15.898 21.7473H12.1025C12.1025 22.791 12.9565 23.645 14.0002 23.645Z" fill="white"/>
</svg>
