<svg width="28" height="28" viewBox="0 0 28 28" fill="none" xmlns="http://www.w3.org/2000/svg">
<circle cx="14" cy="14" r="14" fill="#333333"/>
<path d="M5.60001 12.5636V16.2969C5.60001 16.8103 6.02001 17.2303 6.53334 17.2303H9.33334L12.404 20.3009C12.992 20.8889 14 20.4689 14 19.6383V9.21295C14 8.38228 12.992 7.96228 12.404 8.55028L9.33334 11.6303H6.53334C6.02001 11.6303 5.60001 12.0503 5.60001 12.5636ZM18.2 14.4303C18.2 12.7783 17.248 11.3596 15.8667 10.6689V18.1823C17.248 17.5009 18.2 16.0823 18.2 14.4303ZM15.8667 7.38361V7.57028C15.8667 7.92495 16.1 8.23295 16.4267 8.36361C18.8347 9.32495 20.5333 11.6863 20.5333 14.4303C20.5333 17.1743 18.8347 19.5356 16.4267 20.4969C16.0907 20.6276 15.8667 20.9356 15.8667 21.2903V21.4769C15.8667 22.0649 16.4547 22.4756 16.996 22.2703C20.16 21.0663 22.4 18.0143 22.4 14.4303C22.4 10.8463 20.16 7.79428 16.996 6.59028C16.4547 6.37561 15.8667 6.79561 15.8667 7.38361Z" fill="white"/>
</svg>
